# xmcd
#
# Track frame offsets: 
#        150
#        15765
#        37636
#        58074
#        74511
#        94484
#        118354
#        135359
#        158897
#        172549
#        189917
#        208465
#        221282
#
# Disc length: 3248 seconds
#
# Revision: 0
# Processed by: cddbd v1.5.2PL0 Copyright (c) Steve Scherf et al.
# Submitted via: ExactAudioCopyFreeDBPlugin 1.0
#
DISCID=ab0cae0d
DTITLE=Michigan - At Last
DYEAR=2003
DGENRE=Blues
TTITLE0=Second Best
TTITLE1=Hibernation
TTITLE2=Life is a Long Wait
TTITLE3=Temple of Punishment
TTITLE4=Teacher
TTITLE5=All Dressed Up
TTITLE6=Oh Stupid Me
TTITLE7=Old Habit Of Hospitality
TTITLE8=Man Meets Woman - Date Without Flowers
TTITLE9=Ladette
TTITLE10=Arsonist
TTITLE11=What Makes You Feel Good
TTITLE12=Favourite Hideaway
EXTD=
EXTT0=
EXTT1=
EXTT2=
EXTT3=
EXTT4=
EXTT5=
EXTT6=
EXTT7=
EXTT8=
EXTT9=
EXTT10=
EXTT11=
EXTT12=
PLAYORDER=
